<svg width="343" height="556" viewBox="0 0 343 556" fill="none" xmlns="http://www.w3.org/2000/svg">
<path d="M342.497 0.5C342.375 49.3524 324.366 96.1682 292.401 130.711C260.329 165.37 216.839 184.833 171.5 184.833C126.161 184.833 82.6709 165.37 50.5986 130.711C18.6342 96.1682 0.625022 49.3524 0.50293 0.5H342.497Z" stroke="#081F5C"/>
<path d="M342.497 185.833C342.375 234.685 324.366 281.501 292.401 316.044C260.329 350.703 216.839 370.166 171.5 370.166C126.161 370.166 82.6709 350.703 50.5986 316.044C18.6342 281.501 0.625022 234.685 0.50293 185.833H342.497Z" stroke="#081F5C"/>
<path d="M342.497 371.167C342.375 420.019 324.366 466.835 292.401 501.378C260.329 536.037 216.839 555.5 171.5 555.5C126.161 555.5 82.6709 536.037 50.5986 501.378C18.6342 466.835 0.625022 420.019 0.50293 371.167H342.497Z" stroke="#081F5C"/>
<path d="M128 0.5H215C285.416 0.5 342.5 57.5837 342.5 128V555.5H0.5V128C0.500008 57.5837 57.5837 0.5 128 0.5Z" stroke="#081F5C"/>
<path d="M128 185.833H215C285.416 185.833 342.5 242.917 342.5 313.333V555.5H0.5V313.333C0.5 242.917 57.5837 185.833 128 185.833Z" stroke="#081F5C"/>
<path d="M128 371.167H215C285.416 371.167 342.5 428.251 342.5 498.667V555.5H0.5V498.667L0.510742 497.019C1.39332 427.362 58.134 371.167 128 371.167Z" stroke="#081F5C"/>
</svg>
