<svg width="537" height="274" viewBox="0 0 537 274" fill="none" xmlns="http://www.w3.org/2000/svg">
<path d="M179 0.915039L267.902 137L179 273.086L90.0967 137L179 0.915039Z" stroke="#081F5C"/>
<path d="M89.5 0.915039L178.402 137L89.5 273.086L0.59668 137L89.5 0.915039Z" stroke="#081F5C"/>
<path d="M179 137L268.5 0L358 137L268.5 274L179 137Z" fill="#D0E3FF" fill-opacity="0.2"/>
<path d="M358 0.915039L446.902 137L358 273.086L269.097 137L358 0.915039Z" stroke="#081F5C"/>
<path d="M358 0.915039L446.902 137L358 273.086L269.097 137L358 0.915039Z" stroke="#081F5C"/>
<path d="M447.5 0.915039L536.402 137L447.5 273.086L358.597 137L447.5 0.915039Z" stroke="#081F5C"/>
</svg>
