<svg width="330" height="201" viewBox="0 0 330 201" fill="none" xmlns="http://www.w3.org/2000/svg">
<g opacity="0.5">
<path d="M329.5 200.497C300.639 200.365 272.99 188.845 252.572 168.428C232.037 147.893 220.5 120.041 220.5 91C220.5 61.9588 232.037 34.1075 252.572 13.5723C272.99 -6.84509 300.639 -18.3655 329.5 -18.4971V200.497Z" stroke="white"/>
<path d="M219.5 200.497C190.639 200.365 162.99 188.845 142.572 168.428C122.037 147.893 110.5 120.041 110.5 91C110.5 61.9588 122.037 34.1075 142.572 13.5723C162.99 -6.84509 190.639 -18.3655 219.5 -18.4971V200.497Z" stroke="white"/>
<path d="M109.5 200.497C80.6393 200.365 52.9896 188.845 32.5723 168.428C12.037 147.893 0.5 120.041 0.5 91C0.499994 61.9588 12.037 34.1075 32.5723 13.5723C52.9896 -6.84509 80.6393 -18.3655 109.5 -18.4971V200.497Z" stroke="white"/>
<path d="M329.5 91C329.5 151.475 280.475 200.5 220 200.5H0.5V-18.5H220L221.415 -18.4912C281.238 -17.7336 329.5 30.9972 329.5 91Z" stroke="white"/>
<path d="M219.5 91C219.5 151.475 170.475 200.5 110 200.5H0.5V-18.5H110L111.415 -18.4912C171.238 -17.7336 219.5 30.9972 219.5 91Z" stroke="white"/>
<path d="M109.5 91C109.5 151.308 60.7452 200.228 0.5 200.497V-18.4971C60.7452 -18.2277 109.5 30.6916 109.5 91Z" stroke="white"/>
</g>
</svg>
