<svg width="550" height="120" viewBox="0 0 550 120" fill="none" xmlns="http://www.w3.org/2000/svg">
<path d="M183.01 0.707275L273.808 91.5051L183.01 182.303L92.2119 91.5051L183.01 0.707275Z" stroke="white"/>
<path d="M91.5049 0.707275L182.303 91.5051L91.5049 182.303L0.707031 91.5051L91.5049 0.707275Z" stroke="white"/>
<path d="M183.01 91.505L274.515 0L366.02 91.505L274.515 183.01L183.01 91.505Z" fill="white" fill-opacity="0.25"/>
<path d="M366.02 0.707275L456.817 91.5051L366.02 182.303L275.222 91.5051L366.02 0.707275Z" stroke="white"/>
<path d="M366.02 0.707275L456.817 91.5051L366.02 182.303L275.222 91.5051L366.02 0.707275Z" stroke="white"/>
<path d="M457.524 0.707275L548.322 91.5051L457.524 182.303L366.727 91.5051L457.524 0.707275Z" stroke="white"/>
</svg>
