<svg width="565" height="608" viewBox="0 0 565 608" fill="none" xmlns="http://www.w3.org/2000/svg">
<path d="M227.791 31.5938C254.489 -9.86416 310.511 -9.86416 337.209 31.5938L357.096 62.4746C370.638 83.504 393.132 95.3996 416.602 93.9004L451.009 91.7021C497.135 88.7557 532.166 136.8 519.239 185.643L509.63 221.952C503.09 246.663 508.634 273.333 524.311 292.497L547.33 320.638C578.271 358.462 565.752 418.464 522.977 437.788L491.106 452.186C469.38 462 453.833 483.406 449.952 508.781L444.249 546.069C436.581 596.206 386.057 622.809 345.663 598.199L315.532 579.842C294.991 567.327 270.009 567.327 249.468 579.842L219.337 598.198C178.943 622.808 128.419 596.206 120.751 546.069L115.048 508.781C111.167 483.406 95.6195 462 73.8936 452.186L42.0234 437.788C-0.752081 418.464 -13.2706 358.462 17.6699 320.638L40.6895 292.497C56.366 273.333 61.91 246.663 55.3701 221.952L45.7607 185.643C32.8342 136.8 67.865 88.7557 113.991 91.7021L148.398 93.9004C171.868 95.3996 194.362 83.504 207.904 62.4746L227.791 31.5938Z" stroke="#081F5C"/>
<path d="M234.406 70.395C257.876 33.9487 307.123 33.9488 330.594 70.395L348.094 97.5698C360.022 116.093 379.837 126.573 400.514 125.252L430.792 123.318C471.334 120.728 502.14 162.96 490.773 205.91L482.316 237.863C476.557 259.626 481.44 283.116 495.248 299.996L515.505 324.759C542.71 358.017 531.698 410.772 494.095 427.759L466.05 440.428C446.911 449.074 433.217 467.93 429.799 490.279L424.78 523.092C418.037 567.177 373.619 590.554 338.115 568.923L311.6 552.769C293.504 541.744 271.496 541.744 253.4 552.769L226.886 568.923C191.382 590.554 146.964 567.177 140.221 523.092L135.202 490.279C131.784 467.931 118.09 449.074 98.9512 440.428L70.9062 427.759C33.3025 410.772 22.2914 358.017 49.4961 324.759L69.7529 299.996C83.5611 283.116 88.4444 259.626 82.6846 237.863L74.2275 205.91C62.8609 162.96 93.6669 120.728 134.209 123.318L164.487 125.252C185.164 126.573 204.978 116.093 216.906 97.5698L234.406 70.395Z" stroke="#081F5C"/>
<path d="M241.021 103.116C261.264 71.6816 303.735 71.6817 323.978 103.116L339.092 126.586C349.406 142.602 366.541 151.666 384.425 150.523L410.574 148.854C445.532 146.62 472.113 183.04 462.306 220.098L455.002 247.693C450.022 266.509 454.244 286.818 466.184 301.414L483.678 322.801C507.147 351.491 497.644 396.998 465.212 411.649L440.991 422.592C424.439 430.069 412.6 446.374 409.645 465.695L405.311 494.034C399.493 532.068 361.18 552.22 330.566 533.568L307.667 519.617C292.017 510.082 272.983 510.082 257.333 519.617L234.434 533.568C203.82 552.22 165.507 532.068 159.689 494.034L155.354 465.695C152.399 446.374 140.56 430.069 124.008 422.592L99.7871 411.649C67.3555 396.998 57.853 351.491 81.3223 322.801L98.8164 301.414C110.756 286.818 114.977 266.509 109.997 247.693L102.694 220.098C92.8869 183.04 119.467 146.62 154.426 148.854L180.575 150.523C198.459 151.666 215.594 142.602 225.908 126.586L241.021 103.116Z" stroke="#081F5C"/>
<path d="M247.638 135.837C264.653 109.414 300.348 109.414 317.363 135.837L330.09 155.601C338.789 169.11 353.246 176.759 368.337 175.795L390.357 174.389C419.732 172.513 442.087 203.12 433.839 234.285L427.689 257.524C423.49 273.392 427.049 290.521 437.12 302.833L451.853 320.842C471.586 344.966 463.59 383.226 436.331 395.541L415.935 404.754C401.969 411.063 391.983 424.818 389.491 441.113L385.842 464.977C380.95 496.959 348.743 513.886 323.019 498.213L303.734 486.464C290.53 478.42 274.47 478.42 261.266 486.464L241.982 498.213C216.258 513.886 184.051 496.959 179.159 464.977L175.509 441.113C173.017 424.818 163.031 411.063 149.065 404.754L128.67 395.541C101.41 383.226 93.415 344.966 113.148 320.842L127.881 302.833C137.952 290.521 141.511 273.392 137.312 257.524L131.161 234.285C122.914 203.12 145.269 172.513 174.643 174.389L196.664 175.795C211.755 176.759 226.211 169.11 234.91 155.601L247.638 135.837Z" stroke="#081F5C"/>
<path d="M254.253 168.559C268.041 147.147 296.959 147.147 310.747 168.559L321.088 184.616C328.173 195.619 339.95 201.853 352.248 201.067L370.14 199.925C393.93 198.405 412.06 223.201 405.372 248.473L400.375 267.354C396.955 280.275 399.853 294.223 408.056 304.25L420.025 318.884C436.023 338.441 429.536 369.454 407.448 379.432L390.876 386.918C379.498 392.058 371.367 403.263 369.338 416.53L366.372 435.92C362.406 461.85 336.304 475.551 315.47 462.858L299.802 453.312C289.043 446.758 275.957 446.758 265.198 453.312L249.53 462.858C228.696 475.552 202.593 461.851 198.627 435.92L195.662 416.53C193.633 403.263 185.501 392.058 174.123 386.918L157.551 379.432C135.463 369.454 128.976 338.441 144.974 318.884L156.943 304.25C165.146 294.223 168.044 280.275 164.624 267.354L159.627 248.473C152.939 223.201 171.069 198.405 194.859 199.925L212.752 201.067C225.05 201.853 236.827 195.619 243.912 184.616L254.253 168.559Z" stroke="#081F5C"/>
<path d="M260.868 201.28C271.429 184.88 293.571 184.88 304.132 201.28L312.086 213.632C317.557 222.128 326.654 226.946 336.159 226.339L349.923 225.46C368.129 224.298 382.034 243.282 376.905 262.661L373.062 277.184C370.422 287.158 372.658 297.925 378.992 305.668L388.2 316.925C400.462 331.915 395.483 355.68 378.567 363.322L365.819 369.081C357.028 373.052 350.751 381.706 349.185 391.947L346.903 406.863C343.863 426.742 323.865 437.217 307.921 427.503L295.869 420.161C287.557 415.096 277.443 415.096 269.131 420.161L257.079 427.503C241.135 437.217 221.137 426.742 218.097 406.863L215.815 391.947C214.249 381.706 207.972 373.052 199.181 369.081L186.433 363.322C169.517 355.68 164.538 331.915 176.8 316.925L186.008 305.668C192.342 297.925 194.578 287.158 191.938 277.184L188.095 262.661C182.966 243.282 196.871 224.298 215.077 225.46L228.84 226.339C238.345 226.947 247.443 222.128 252.914 213.632L260.868 201.28Z" stroke="#081F5C"/>
<path d="M267.484 234.001C274.818 222.613 290.183 222.613 297.517 234.001L303.085 242.647C306.942 248.637 313.359 252.04 320.071 251.611L329.706 250.996C342.328 250.19 352.009 263.361 348.439 276.848L345.749 287.015C343.889 294.041 345.463 301.628 349.929 307.087L356.374 314.967C364.9 325.39 361.429 341.908 349.686 347.213L340.762 351.244C334.558 354.047 330.135 360.15 329.031 367.364L327.435 377.805C325.32 391.632 311.427 398.883 300.373 392.148L291.937 387.008C286.07 383.434 278.931 383.434 273.064 387.008L264.627 392.148C253.573 398.883 239.681 391.632 237.566 377.805L235.97 367.364C234.866 360.15 230.443 354.047 224.238 351.244L215.315 347.213C203.572 341.908 200.101 325.39 208.627 314.967L215.072 307.087C219.538 301.628 221.111 294.041 219.252 287.015L216.562 276.848C212.992 263.361 222.673 250.19 235.295 250.996L244.929 251.611C251.641 252.04 258.059 248.637 261.916 242.647L267.484 234.001Z" stroke="#081F5C"/>
</svg>
