<svg width="377" height="264" viewBox="0 0 377 264" fill="none" xmlns="http://www.w3.org/2000/svg">
<path d="M179.49 23.21C200.474 -7.07003 244.526 -7.07005 265.51 23.21L281.173 45.8125C291.866 61.2424 309.616 69.9589 328.124 68.8604L355.224 67.252C391.515 65.0977 419.004 100.206 408.858 135.83L401.289 162.405C396.123 180.544 400.505 200.119 412.883 214.18L431.013 234.775C455.31 262.378 445.495 306.177 411.87 320.293L386.77 330.83C369.629 338.026 357.349 353.728 354.283 372.355L349.791 399.646C343.771 436.224 304.071 455.698 272.289 437.704L248.558 424.268C232.352 415.093 212.648 415.093 196.442 424.268L172.711 437.704C140.929 455.698 101.229 436.224 95.209 399.646L90.7168 372.355C87.6509 353.728 75.3715 338.026 58.2305 330.83L33.1299 320.293C-0.495496 306.177 -10.3103 262.378 13.9873 234.775L32.1172 214.18C44.4946 200.119 48.8769 180.544 43.7109 162.405L36.1416 135.83C25.9961 100.206 53.4846 65.0977 89.7764 67.252L116.876 68.8604C135.384 69.9589 153.134 61.2424 163.827 45.8125L179.49 23.21Z" stroke="white"/>
<path d="M184.701 51.609C203.143 24.9971 241.858 24.9969 260.3 51.609L274.083 71.4986C283.504 85.0941 299.144 92.7753 315.453 91.8072L339.301 90.3912C371.195 88.498 395.355 119.353 386.438 150.664L379.777 174.05C375.226 190.032 379.086 207.279 389.991 219.668L405.946 237.793C427.301 262.052 418.675 300.547 389.123 312.953L367.034 322.225C351.931 328.566 341.111 342.401 338.41 358.813L334.457 382.83C329.165 414.978 294.275 432.09 266.345 416.277L245.461 404.454C231.181 396.369 213.819 396.369 199.539 404.454L178.656 416.277C150.726 432.09 115.834 414.978 110.543 382.83L106.59 358.813C103.889 342.401 93.0693 328.566 77.9658 322.225L55.8779 312.953C26.3261 300.547 17.6994 262.053 39.0547 237.793L55.0088 219.668C65.9145 207.279 69.7743 190.032 65.2227 174.05L58.5625 150.664C49.6455 119.353 73.8057 88.4983 105.699 90.3912L129.547 91.8072C145.856 92.7753 161.497 85.0942 170.918 71.4986L184.701 51.609Z" stroke="white"/>
<path d="M189.911 75.558C205.811 52.614 239.189 52.6141 255.089 75.558L266.993 92.7357C275.143 104.496 288.673 111.141 302.782 110.303L323.378 109.08C350.874 107.449 371.706 134.051 364.018 161.048L358.265 181.246C354.328 195.07 357.667 209.988 367.101 220.705L380.88 236.359C399.293 257.276 391.853 290.467 366.375 301.162L347.299 309.17C334.233 314.655 324.874 326.624 322.537 340.821L319.123 361.562C314.561 389.281 284.478 404.033 260.399 390.401L242.363 380.189C230.01 373.195 214.99 373.195 202.637 380.189L184.602 390.401C160.523 404.034 130.44 389.282 125.878 361.562L122.464 340.821C120.127 326.624 110.768 314.655 97.7021 309.17L78.626 301.162C53.1477 290.467 45.7081 257.276 64.1211 236.359L77.8994 220.705C87.3334 209.988 90.6725 195.07 86.7354 181.246L80.9834 161.048C73.2945 134.05 94.1273 107.448 121.623 109.08L142.219 110.303C156.328 111.141 169.858 104.496 178.008 92.7357L189.911 75.558Z" stroke="white"/>
<path d="M195.121 99.507C208.479 80.231 236.52 80.231 249.878 99.507L259.902 113.972C266.781 123.898 278.2 129.507 290.109 128.8L307.453 127.771C330.551 126.4 348.056 148.747 341.596 171.432L336.752 188.441C333.429 200.108 336.247 212.699 344.209 221.744L355.812 234.925C371.283 252.5 365.031 280.386 343.627 289.371L327.562 296.115C316.534 300.745 308.635 310.847 306.663 322.828L303.788 340.294C299.955 363.585 274.681 375.976 254.453 364.524L239.266 355.925C228.839 350.022 216.16 350.022 205.733 355.925L190.546 364.524C170.318 375.976 145.044 363.585 141.211 340.294L138.336 322.828C136.364 310.847 128.465 300.745 117.437 296.115L101.372 289.371C79.9677 280.385 73.7159 252.5 89.1865 234.925L100.79 221.744C108.752 212.699 111.57 200.108 108.247 188.441L103.403 171.432C96.9427 148.747 114.448 126.4 137.546 127.771L154.89 128.8C166.799 129.507 178.219 123.898 185.098 113.972L195.121 99.507Z" stroke="white"/>
<path d="M200.332 123.456C211.148 107.848 233.852 107.848 244.668 123.456L252.812 135.209C258.42 143.3 267.729 147.873 277.438 147.297L291.53 146.46C310.23 145.35 324.407 163.444 319.175 181.815L315.239 195.635C312.531 205.145 314.828 215.409 321.318 222.782L330.746 233.492C343.274 247.725 338.21 270.305 320.879 277.581L307.827 283.061C298.836 286.835 292.397 295.07 290.79 304.836L288.454 319.027C285.35 337.889 264.885 347.919 248.509 338.647L236.168 331.66C227.668 326.848 217.331 326.848 208.831 331.66L196.491 338.647C180.115 347.919 159.649 337.889 156.545 319.027L154.209 304.836C152.602 295.07 146.164 286.835 137.173 283.061L124.12 277.581C106.789 270.305 101.726 247.725 114.254 233.492L123.681 222.782C130.171 215.409 132.468 205.145 129.76 195.635L125.824 181.815C120.592 163.444 134.769 145.35 153.469 146.46L167.561 147.297C177.27 147.873 186.58 143.3 192.188 135.209L200.332 123.456Z" stroke="white"/>
<path d="M205.543 147.405C213.817 135.465 231.183 135.465 239.457 147.405L245.723 156.446C250.059 162.703 257.258 166.24 264.768 165.794L275.607 165.15C289.909 164.301 300.759 178.141 296.755 192.2L293.728 202.83C291.633 210.183 293.409 218.118 298.428 223.82L305.68 232.058C315.266 242.948 311.389 260.225 298.132 265.791L288.092 270.006C281.138 272.925 276.16 279.293 274.917 286.844L273.12 297.76C270.745 312.192 255.089 319.862 242.563 312.77L233.071 307.396C226.497 303.674 218.503 303.674 211.929 307.396L202.437 312.77C189.911 319.862 174.255 312.192 171.88 297.76L170.083 286.844C168.84 279.293 163.862 272.925 156.908 270.006L146.868 265.791C133.611 260.225 129.734 242.948 139.32 232.058L146.572 223.82C151.591 218.118 153.367 210.183 151.272 202.83L148.245 192.2C144.241 178.141 155.091 164.301 169.393 165.15L180.232 165.794C187.742 166.24 194.942 162.703 199.277 156.446L205.543 147.405Z" stroke="white"/>
<path d="M210.753 171.354C216.485 163.082 228.515 163.082 234.247 171.354L238.633 177.682C241.697 182.104 246.787 184.606 252.097 184.291L259.685 183.839C269.588 183.252 277.11 192.838 274.334 202.584L272.215 210.025C270.735 215.221 271.99 220.828 275.537 224.858L280.613 230.625C287.257 238.172 284.569 250.145 275.385 254.001L268.356 256.951C263.441 259.014 259.922 263.516 259.044 268.851L257.786 276.493C256.14 286.496 245.292 291.805 236.618 286.894L229.974 283.131C225.326 280.5 219.674 280.5 215.026 283.131L208.382 286.894C199.708 291.805 188.86 286.496 187.214 276.493L185.956 268.851C185.078 263.516 181.56 259.015 176.645 256.951L169.616 254.001C160.432 250.145 157.743 238.172 164.387 230.625L169.463 224.858C173.01 220.828 174.265 215.221 172.785 210.025L170.666 202.584C167.89 192.838 175.413 183.252 185.316 183.839L192.904 184.291C198.214 184.606 203.304 182.104 206.368 177.682L210.753 171.354Z" stroke="white"/>
</svg>
