<svg width="237" height="361" viewBox="0 0 237 361" fill="none" xmlns="http://www.w3.org/2000/svg">
<path d="M139.278 18.8408C155.506 -5.61393 189.557 -5.61376 205.784 18.8408L217.93 37.1445C226.239 49.6662 240.041 56.7502 254.443 55.8574L275.457 54.5547C303.489 52.8173 324.788 81.1543 316.929 109.974L311.06 131.494C307.047 146.206 310.449 162.085 320.067 173.496L334.126 190.175C352.936 212.491 345.322 247.889 319.323 259.287L299.859 267.819C286.527 273.664 276.988 286.411 274.607 301.519L271.125 323.619C266.463 353.199 235.752 368.887 211.203 354.372L192.801 343.491C180.196 336.039 164.866 336.039 152.262 343.491L133.86 354.372C109.311 368.887 78.6003 353.199 73.9385 323.619L70.4551 301.519C68.074 286.411 58.5359 273.664 45.2041 267.819L25.7402 259.287C-0.258878 247.889 -7.87245 212.491 10.9375 190.175L24.9961 173.496C34.6147 162.085 38.016 146.206 34.0039 131.494L28.1348 109.974C20.2754 81.1542 41.5747 52.817 69.6064 54.5547L90.6201 55.8574C105.022 56.7502 118.825 49.6663 127.134 37.1445L139.278 18.8408Z" stroke="white"/>
<path d="M143.319 41.8384C157.576 20.354 187.488 20.354 201.744 41.8384L212.432 57.9448C219.755 68.9809 231.921 75.2259 244.617 74.439L263.109 73.2935C287.731 71.7671 306.45 96.659 299.543 121.986L294.379 140.924C290.843 153.889 293.84 167.883 302.317 177.94L314.688 192.618C331.217 212.227 324.524 243.329 301.684 253.342L284.556 260.851C272.804 266.003 264.398 277.239 262.3 290.552L259.234 310C255.138 335.994 228.155 349.77 206.593 337.021L190.399 327.446C179.288 320.876 165.775 320.876 154.664 327.446L138.471 337.02C116.908 349.769 89.9257 335.994 85.8291 310L82.7637 290.552C80.6654 277.239 72.2598 266.003 60.5078 260.851L43.3799 253.342C20.5395 243.329 13.8466 212.227 30.375 192.618L42.7461 177.94C51.2234 167.883 54.2211 153.889 50.6855 140.924L45.5205 121.986C38.6137 96.659 57.3327 71.7672 81.9541 73.2935L100.446 74.439C113.143 75.226 125.309 68.9809 132.632 57.9448L143.319 41.8384Z" stroke="white"/>
<path d="M147.359 61.2324C159.645 42.7183 185.418 42.7183 197.703 61.2324L206.934 75.1426C213.271 84.6929 223.8 90.0992 234.791 89.418L250.762 88.4277C271.973 87.1129 288.111 108.56 282.157 130.395L277.696 146.751C274.637 157.969 277.23 170.078 284.566 178.781L295.251 191.457C309.498 208.359 303.726 235.166 284.044 243.795L269.252 250.28C259.08 254.74 251.806 264.463 249.99 275.982L247.344 292.778C243.812 315.185 220.559 327.049 201.982 316.065L187.997 307.797C178.38 302.111 166.683 302.111 157.065 307.797L143.08 316.065C124.504 327.049 101.25 315.185 97.7188 292.778L95.0723 275.982C93.2568 264.463 85.9824 254.74 75.8105 250.28L61.0176 243.795C41.3362 235.166 35.5648 208.359 49.8115 191.457L60.4961 178.781C67.8322 170.078 70.4253 157.969 67.3662 146.751L62.9053 130.395C56.9512 108.56 73.0897 87.1128 94.3008 88.4277L110.271 89.418C121.262 90.0992 131.792 84.6929 138.129 75.1426L147.359 61.2324Z" stroke="white"/>
<path d="M151.399 80.6265C161.714 65.0826 183.349 65.0826 193.663 80.6265L201.437 92.3403C206.788 100.405 215.681 104.973 224.966 104.397L238.415 103.563C256.216 102.46 269.773 120.463 264.771 138.804L261.016 152.578C258.433 162.049 260.622 172.272 266.816 179.622L275.814 190.296C287.779 204.492 282.928 227.003 266.405 234.247L253.949 239.708C245.357 243.475 239.215 251.687 237.683 261.413L235.453 275.556C232.487 294.376 212.963 304.328 197.373 295.111L185.596 288.148C177.472 283.345 167.591 283.345 159.468 288.148L147.69 295.111C132.101 304.328 112.575 294.376 109.609 275.556L107.381 261.413C105.848 251.687 99.7062 243.475 91.1143 239.708L78.6572 234.247C62.1346 227.003 57.2838 204.492 69.249 190.296L78.2461 179.622C84.4411 172.272 86.6296 162.049 84.0469 152.578L80.291 138.804C75.289 120.462 88.8476 102.459 106.648 103.563L120.097 104.397C129.382 104.973 138.275 100.405 143.627 92.3403L151.399 80.6265Z" stroke="white"/>
<path d="M155.44 100.019C163.784 87.446 181.28 87.4461 189.623 100.019L195.938 109.537C200.304 116.116 207.561 119.844 215.141 119.375L226.067 118.698C240.458 117.806 251.436 132.363 247.387 147.212L244.335 158.403C242.228 166.127 244.013 174.467 249.066 180.462L256.377 189.135C266.061 200.624 262.131 218.84 248.767 224.699L238.646 229.136C231.634 232.21 226.624 238.91 225.374 246.841L223.563 258.333C221.163 273.567 205.366 281.608 192.763 274.156L183.194 268.499C176.564 264.579 168.499 264.579 161.869 268.499L152.301 274.156C139.697 281.608 123.901 273.567 121.5 258.333L119.689 246.841C118.439 238.91 113.43 232.21 106.418 229.136L96.2969 224.699C82.9327 218.84 79.0028 200.624 88.6865 189.135L95.9971 180.462C101.051 174.467 102.835 166.127 100.729 158.403L97.6768 147.212C93.6273 132.363 104.606 117.806 118.996 118.698L129.923 119.375C137.502 119.844 144.759 116.116 149.125 109.537L155.44 100.019Z" stroke="white"/>
<path d="M159.48 119.414C165.853 109.811 179.21 109.811 185.582 119.414L190.44 126.735C193.82 131.828 199.441 134.718 205.314 134.354L213.72 133.833C224.7 133.152 233.097 144.265 230 155.622L227.653 164.23C226.023 170.207 227.404 176.661 231.316 181.303L236.939 187.974C244.342 196.756 241.332 210.678 231.127 215.152L223.342 218.565C217.91 220.946 214.033 226.135 213.065 232.272L211.672 241.113C209.836 252.759 197.769 258.888 188.152 253.202L180.792 248.85C175.656 245.813 169.407 245.813 164.271 248.85L156.91 253.202C147.293 258.888 135.226 252.759 133.391 241.113L131.997 232.272C131.03 226.135 127.153 220.946 121.721 218.565L113.936 215.152C103.73 210.678 100.721 196.756 108.123 187.974L113.746 181.303C117.659 176.661 119.039 170.207 117.409 164.23L115.062 155.622C111.965 144.265 120.363 133.152 131.343 133.833L139.748 134.354C145.621 134.718 151.242 131.828 154.622 126.735L159.48 119.414Z" stroke="white"/>
<path d="M163.521 138.807C167.922 132.174 177.141 132.174 181.542 138.807L184.943 143.932C187.337 147.539 191.322 149.59 195.489 149.332L201.373 148.967C208.943 148.498 214.76 156.167 212.615 164.031L210.972 170.056C209.818 174.286 210.795 178.855 213.566 182.143L217.503 186.813C222.624 192.888 220.535 202.514 213.488 205.603L208.039 207.993C204.187 209.682 201.441 213.358 200.757 217.702L199.782 223.89C198.512 231.95 190.173 236.167 183.543 232.247L178.391 229.201C174.748 227.047 170.315 227.047 166.673 229.201L161.521 232.247C154.89 236.167 146.552 231.95 145.281 223.89L144.306 217.702C143.621 213.358 140.877 209.682 137.024 207.993L131.574 205.603C124.528 202.514 122.44 192.888 127.561 186.813L131.497 182.143C134.268 178.855 135.244 174.286 134.091 170.056L132.447 164.031C130.303 156.167 136.12 148.498 143.69 148.967L149.574 149.332C153.742 149.59 157.726 147.54 160.12 143.932L163.521 138.807Z" stroke="white"/>
</svg>
